<svg xmlns="http://www.w3.org/2000/svg" viewBox="0 0 37 37">
  <defs>
    <style>
      .cls-1 {
        fill: #ffcb08;
      }

      .cls-2 {
        fill: none;
      }
    </style>
  </defs>
  <g id="Symbol_7_2" data-name="Symbol 7 – 2" transform="translate(-23 -1987)">
    <circle id="Ellipse_4" data-name="Ellipse 4" class="cls-1" cx="18.5" cy="18.5" r="18.5" transform="translate(23 1987)"/>
    <g id="baseline-credit_card-24px" transform="translate(30.239 1993.435)">
      <path id="Path_8" data-name="Path 8" class="cls-2" d="M0,0H22.522V22.522H0Z"/>
      <path id="Path_9" data-name="Path 9" d="M18.891,4H3.877A1.862,1.862,0,0,0,2.009,5.877L2,17.138a1.87,1.87,0,0,0,1.877,1.877H18.891a1.87,1.87,0,0,0,1.877-1.877V5.877A1.87,1.87,0,0,0,18.891,4Zm0,13.138H3.877v-5.63H18.891Zm0-9.384H3.877V5.877H18.891Z" transform="translate(-0.123 -0.246)"/>
    </g>
  </g>
</svg>
