<svg xmlns="http://www.w3.org/2000/svg" viewBox="0 0 37 37">
  <defs>
    <style>
      .cls-1 {
        fill: #ffcb08;
      }

      .cls-2 {
        fill: none;
      }
    </style>
  </defs>
  <g id="Symbol_9_2" data-name="Symbol 9 – 2" transform="translate(-22 -2326)">
    <circle id="Ellipse_3" data-name="Ellipse 3" class="cls-1" cx="18.5" cy="18.5" r="18.5" transform="translate(22 2326)"/>
    <g id="car_key" data-name="car key" transform="translate(30.848 2333.239)">
      <path id="path4" class="cls-2" d="M0,0H22.522V22.522H0Z"/>
      <g id="g6" transform="translate(0.808 1.868)">
        <path id="path8" d="M30.128,42.475a3.053,3.053,0,0,0-3.211,2.859,2.7,2.7,0,0,0,.971,2.047l.373-.733a1.9,1.9,0,0,1-.552-1.314,2.262,2.262,0,0,1,2.419-2.067,2.262,2.262,0,0,1,2.419,2.067,2.05,2.05,0,0,1-1.247,1.81l-.329.948q.125-.03.247-.069l.4.7a9.342,9.342,0,0,0-1.365,1.208l3.578,7.891a6,6,0,0,0,5.444-2.992l-4.743-7.251a8.237,8.237,0,0,0-2.238.73l-.356-.622a2.776,2.776,0,0,0,1.4-2.358,3.053,3.053,0,0,0-3.211-2.859Zm-5.4.262a1.212,1.212,0,0,0-.359.059,1.044,1.044,0,0,0-.6.466l-.013.025-2.855,4.06a1.06,1.06,0,0,0-.02.746,1.024,1.024,0,0,0,.449.59l6.32,3.218a1.1,1.1,0,0,0,1.322-.443l1.116-3.267H30.1l.278-.8h-.011l.216-.632.013-.025a1.048,1.048,0,0,0,.024-.76,1.036,1.036,0,0,0-.459-.6l-1.411-.718a1.064,1.064,0,0,0-.015,1.358l.093.155.453.238-.363.713-.006,0-.357.7.006,0-.277.544-4.469-2.275.818-1.607.18-.353,1.357.691a3.512,3.512,0,0,1,.455-1.249l-1.487-.757a.877.877,0,0,0-.4-.083Zm9.586,5.779,1.059,1.928L32.217,52.18l-.869-1.58-.191-.347,3.161-1.737Zm-.313,1.075-1.773.975.3.54,1.773-.975ZM22.6,50.217l-.918,1.8,3.058,1.557.918-1.8L22.6,50.217Zm13.074.766,1.059,1.927-3.161,1.737-.869-1.58-.191-.347,3.161-1.737Zm-.313,1.075-1.773.975.3.54,1.773-.975-.3-.54Zm-13.411.987h0l-3.578,7.027.269.828,3.4-6.675.705.359-3.4,6.674.984-.32.57-.185-.307-.948.946-.307-.308-.946.947-.308-.236-.726,1.811-3.557-1.8-.918Z" transform="translate(-18.372 -42.475)"/>
      </g>
    </g>
  </g>
</svg>
